:FULLY-SPECIFIED
:FORCE-ALL-JOINTS-BE-3DOF
:DEGREES
611
root 5.62118 16.6646 -3.76983 -0.298886 53.8368 -8.15931
lfemur -18.0441 24.4519 -21.9568
ltibia 40.6499 -0 0
lfoot -32.5091 24.9857 0.000313648
ltoes 17.626 -0 0
rfemur -53.0049 -17.8095 28.0632
rtibia 61.757 -0 0
rfoot 8.05818 29.9392 0.0039824
rtoes -3.83107 0 0
lowerback 3.67898 -3.26646 -4.97405
upperback 0.177729 -4.53907 1.09362
thorax -1.40114 -2.23415 4.11129
lowerneck -8.26992 -9.51909 -0.620405
upperneck 14.8845 -13.56 4.65551
head 6.24918 -6.23988 0.481021
lclavicle 9.63366e-14 1.00854e-14 -2.54684e-31
lhumerus -22.2797 -41.5302 92.5122
lradius 56.2967 -0 0
lwrist 20.67 0 0
lhand -10.6257 0.33443 -5.80326e-05
lfingers 7.12502 -0 0
lthumb 15.3811 29.7423 -5.8988e-05
rclavicle 9.63366e-14 1.00854e-14 -2.54684e-31
rhumerus 22.5805 3.89534 -72.3373
rradius 119.169 -0 0
rwrist -58.6664 0 0
rhand -26.9343 -22.2411 0.00145957
rfingers 7.12502 -0 0
rthumb -0.356673 -52.22 0.00140471
612
root 5.62417 16.6677 -3.76591 -0.0312936 53.3274 -7.99651
lfemur -17.9478 24.2952 -21.9425
ltibia 40.4886 -0 0
lfoot -32.5171 24.7423 0.00119044
ltoes 17.8139 -0 0
rfemur -52.8788 -17.8245 27.8864
rtibia 61.7739 -0 0
rfoot 8.01453 29.3806 0.0151187
rtoes -3.82997 0 0
lowerback 3.58679 -3.26868 -4.93418
upperback 0.125731 -4.53636 1.11853
thorax -1.40435 -2.23186 4.11058
lowerneck -8.30957 -9.48214 -0.589289
upperneck 14.8627 -13.5096 4.63165
head 6.24437 -6.2161 0.472119
lclavicle 9.41283e-14 9.36419e-15 -9.66592e-31
lhumerus -22.3267 -41.8425 92.7363
lradius 56.5725 -0 0
lwrist 20.6782 0 0
lhand -10.6095 0.312114 -0.00022025
lfingers 7.12502 -0 0
lthumb 15.3967 29.7187 -0.000223876
rclavicle 9.41283e-14 9.36419e-15 -9.66592e-31
rhumerus 22.0573 3.90385 -72.1552
rradius 118.715 -0 0
rwrist -58.392 0 0
rhand -26.9952 -22.3907 0.00553958
rfingers 7.12502 -0 0
rthumb -0.415467 -52.3691 0.00533138
613
root 5.62891 16.6726 -3.75971 0.381135 52.5199 -7.75063
lfemur -17.7957 24.0471 -21.9205
ltibia 40.2333 -0 0
lfoot -32.5298 24.3569 0.00250851
ltoes 18.1113 -0 0
rfemur -52.679 -17.8475 27.6065
rtibia 61.8006 -0 0
rfoot 7.94521 28.496 0.0318792
rtoes -3.82824 0 0
lowerback 3.44087 -3.27206 -4.87107
upperback 0.0434271 -4.53203 1.15796
thorax -1.40944 -2.22823 4.10946
lowerneck -8.37229 -9.4236 -0.540097
upperneck 14.8281 -13.4298 4.59385
head 6.23676 -6.17846 0.458024
lclavicle 9.0633e-14 8.22261e-15 -2.03662e-30
lhumerus -22.4051 -42.3365 93.0941
lradius 57.009 -0 0
lwrist 20.6912 0 0
lhand -10.5837 0.276791 -0.000464072
lfingers 7.12502 -0 0
lthumb 15.4215 29.6814 -0.000471712
rclavicle 9.0633e-14 8.22261e-15 -2.03662e-30
rhumerus 21.2291 3.9207 -71.8672
rradius 117.995 -0 0
rwrist -57.9577 0 0
rhand -27.0916 -22.6277 0.0116725
rfingers 7.12502 -0 0
rthumb -0.508548 -52.6052 0.0112337
614
root 5.63518 16.6791 -3.75149 0.907672 51.4486 -7.44598
lfemur -17.5948 23.7184 -21.8924
ltibia 39.895 -0 0
lfoot -32.5467 23.8464 0.00412311
ltoes 18.5053 -0 0
rfemur -52.414 -17.8765 27.2354
rtibia 61.836 -0 0
rfoot 7.85298 27.324 0.0524331
rtoes -3.82594 0 0
lowerback 3.24753 -3.2763 -4.78743
upperback -0.0656149 -4.52619 1.2102
thorax -1.41618 -2.22342 4.10798
lowerneck -8.4553 -9.34597 -0.475034
upperneck 14.7823 -13.3241 4.54371
head 6.22667 -6.1286 0.439343
lclavicle 8.6002e-14 6.71012e-15 -3.34705e-30
lhumerus -22.5164 -42.9906 93.574
lradius 57.5873 -0 0
lwrist 20.7085 0 0
lhand -10.5496 0.22999 -0.000762675
lfingers 7.12502 -0 0
lthumb 15.4543 29.632 -0.000775232
rclavicle 8.6002e-14 6.71012e-15 -3.34705e-30
rhumerus 20.1319 3.94942 -71.486
rradius 117.041 -0 0
rwrist -57.3824 0 0
rhand -27.2193 -22.9416 0.019184
rfingers 7.12502 -0 0
rthumb -0.631907 -52.918 0.018463
